# xmcd
#
# Track frame offsets: 
#        150
#        28987
#        71892
#        119671
#
# Disc length: 2791 seconds
#
# Revision: 0
# Processed by: cddbd v1.5.2PL0 Copyright (c) Steve Scherf et al.
# Submitted via: ExactAudioCopy v0.99pb3
#
DISCID=3d0ae504
DTITLE=Jimmy Thackery and The Drivers - As Live As It Gets (Disk 2)
DYEAR=2012
DGENRE=Blues
TTITLE0=Feel The Heat
TTITLE1=The Hustle (Is On)
TTITLE2=Hobart's Blues
TTITLE3=I've Been Down So Long
EXTD=
EXTT0=
EXTT1=
EXTT2=
EXTT3=
PLAYORDER=
